<svg width="31" height="30" viewBox="0 0 31 30" fill="none" xmlns="http://www.w3.org/2000/svg">
<path d="M15.2975 7.11086C10.9575 7.11086 7.45684 10.4522 7.45684 14.5946C7.45684 18.737 10.9575 22.0783 15.2975 22.0783C19.6375 22.0783 23.1382 18.737 23.1382 14.5946C23.1382 10.4522 19.6375 7.11086 15.2975 7.11086ZM15.2975 19.46C12.4929 19.46 10.2001 17.2781 10.2001 14.5946C10.2001 11.9111 12.4861 9.72919 15.2975 9.72919C18.109 9.72919 20.395 11.9111 20.395 14.5946C20.395 17.2781 18.1022 19.46 15.2975 19.46ZM25.2878 6.80473C25.2878 7.77521 24.4689 8.55029 23.4589 8.55029C22.4422 8.55029 21.6301 7.76869 21.6301 6.80473C21.6301 5.84077 22.449 5.05918 23.4589 5.05918C24.4689 5.05918 25.2878 5.84077 25.2878 6.80473ZM30.4808 8.57634C30.3648 6.23808 29.8052 4.16686 28.0105 2.46039C26.2226 0.75391 24.0526 0.219823 21.6028 0.102584C19.078 -0.0341946 11.5103 -0.0341946 8.9854 0.102584C6.54244 0.213309 4.37243 0.747397 2.57774 2.45387C0.783045 4.16035 0.230307 6.23156 0.107477 8.56983C-0.0358256 10.9797 -0.0358256 18.2029 0.107477 20.6128C0.223483 22.9511 0.783045 25.0223 2.57774 26.7288C4.37243 28.4353 6.53561 28.9694 8.9854 29.0866C11.5103 29.2234 19.078 29.2234 21.6028 29.0866C24.0526 28.9759 26.2226 28.4418 28.0105 26.7288C29.7984 25.0223 30.3579 22.9511 30.4808 20.6128C30.6241 18.2029 30.6241 10.9862 30.4808 8.57634ZM27.2189 23.1986C26.6867 24.4752 25.6562 25.4587 24.3119 25.9733C22.2989 26.7353 17.5221 26.5595 15.2975 26.5595C13.0729 26.5595 8.28936 26.7288 6.28313 25.9733C4.94564 25.4652 3.91523 24.4817 3.37614 23.1986C2.57774 21.2772 2.76198 16.7179 2.76198 14.5946C2.76198 12.4713 2.58456 7.90547 3.37614 5.99057C3.9084 4.71397 4.93881 3.73047 6.28313 3.21592C8.29618 2.45387 13.0729 2.62973 15.2975 2.62973C17.5221 2.62973 22.3057 2.46038 24.3119 3.21592C25.6494 3.72396 26.6798 4.70746 27.2189 5.99057C28.0173 7.91199 27.8331 12.4713 27.8331 14.5946C27.8331 16.7179 28.0173 21.2837 27.2189 23.1986Z" fill="white"/>
</svg>
