<svg width="31" height="30" viewBox="0 0 31 30" fill="none" xmlns="http://www.w3.org/2000/svg">
<path d="M26.0068 4.24155C23.146 1.50507 19.3361 0 15.2873 0C6.93015 0 0.129727 6.48938 0.129727 14.4643C0.129727 17.0118 0.826156 19.5007 2.15074 21.6964L0 29.1892L8.03624 27.1759C10.2484 28.3292 12.7405 28.9351 15.2805 28.9351H15.2873C23.6376 28.9351 30.5882 22.4457 30.5882 14.4708C30.5882 10.6071 28.8676 6.97804 26.0068 4.24155ZM15.2873 26.4983C13.0205 26.4983 10.8015 25.9184 8.86922 24.8238L8.41177 24.5632L3.64601 25.7556L4.91597 21.3185L4.61555 20.8625C3.35242 18.9469 2.69013 16.7382 2.69013 14.4643C2.69013 7.83808 8.34349 2.44329 15.2941 2.44329C18.6602 2.44329 21.8214 3.69426 24.1975 5.96815C26.5735 8.24204 28.0347 11.2587 28.0278 14.4708C28.0278 21.1035 22.2311 26.4983 15.2873 26.4983ZM22.197 17.494C21.8214 17.3115 19.9575 16.4385 19.6092 16.3212C19.261 16.1974 19.0084 16.1388 18.7558 16.5036C18.5032 16.8685 17.7794 17.6764 17.5541 17.924C17.3356 18.1651 17.1103 18.1976 16.7348 18.0152C14.5089 16.9532 13.0478 16.1192 11.5798 13.715C11.1907 13.0765 11.969 13.1221 12.6928 11.7408C12.8157 11.4998 12.7542 11.2913 12.6586 11.1088C12.563 10.9264 11.8051 9.14768 11.4911 8.42447C11.1838 7.7208 10.8697 7.81853 10.6376 7.8055C10.4191 7.79247 10.1665 7.79247 9.91387 7.79247C9.66124 7.79247 9.25158 7.88369 8.90336 8.24204C8.55515 8.6069 7.57878 9.47997 7.57878 11.2587C7.57878 13.0374 8.9375 14.7575 9.12185 14.9986C9.31303 15.2396 11.7915 18.8883 15.5945 20.4585C17.9979 21.4488 18.9401 21.5335 20.1418 21.3641C20.8724 21.2599 22.3813 20.4911 22.6954 19.6441C23.0095 18.7971 23.0095 18.0738 22.9139 17.924C22.8251 17.7611 22.5725 17.6699 22.197 17.494Z" fill="white"/>
</svg>
